<svg width="20" height="21" viewBox="0 0 20 21" fill="none" xmlns="http://www.w3.org/2000/svg">
<path d="M6.00179 21C5.45162 21 4.98082 20.7945 4.58937 20.3836C4.19725 19.972 4.00119 19.4775 4.00119 18.9C4.00119 18.3225 4.19725 17.8279 4.58937 17.4163C4.98082 17.0054 5.45162 16.8 6.00179 16.8C6.55195 16.8 7.02276 17.0054 7.41421 17.4163C7.80632 17.8279 8.00238 18.3225 8.00238 18.9C8.00238 19.4775 7.80632 19.972 7.41421 20.3836C7.02276 20.7945 6.55195 21 6.00179 21ZM16.0048 21C15.4546 21 14.9838 20.7945 14.5923 20.3836C14.2002 19.972 14.0042 19.4775 14.0042 18.9C14.0042 18.3225 14.2002 17.8279 14.5923 17.4163C14.9838 17.0054 15.4546 16.8 16.0048 16.8C16.5549 16.8 17.0261 17.0054 17.4182 17.4163C17.8096 17.8279 18.0054 18.3225 18.0054 18.9C18.0054 19.4775 17.8096 19.972 17.4182 20.3836C17.0261 20.7945 16.5549 21 16.0048 21ZM6.00179 15.75C5.25156 15.75 4.68473 15.4042 4.30128 14.7126C3.91783 14.0217 3.90116 13.335 4.25127 12.6525L5.60167 10.08L2.0006 2.1H0.97529C0.691873 2.1 0.45847 1.9992 0.275082 1.7976C0.0916939 1.5967 0 1.3475 0 1.05C0 0.7525 0.0960286 0.50295 0.288086 0.30135C0.479476 0.10045 0.71688 0 1.0003 0H2.62578C2.80917 0 2.98422 0.0525001 3.15094 0.1575C3.31765 0.2625 3.44269 0.41125 3.52605 0.60375L4.20125 2.1H18.9556C19.4058 2.1 19.7142 2.275 19.8809 2.625C20.0476 2.975 20.0393 3.3425 19.8559 3.7275L16.3049 10.4475C16.1215 10.7975 15.8797 11.0687 15.5796 11.2612C15.2795 11.4537 14.9378 11.55 14.5543 11.55H7.10211L6.00179 13.65H17.0301C17.3135 13.65 17.5469 13.7504 17.7303 13.9513C17.9137 14.1529 18.0054 14.4025 18.0054 14.7C18.0054 14.9975 17.9093 15.2467 17.7173 15.4476C17.5259 15.6492 17.2885 15.75 17.0051 15.75H6.00179Z" fill="black"/>
</svg>
