<svg width="127" height="127" viewBox="0 0 127 127" fill="none" xmlns="http://www.w3.org/2000/svg">
<path fill-rule="evenodd" clip-rule="evenodd" d="M33.6376 9.96565C54.0935 1.20987 73.7239 1.16678 92.5288 9.83631C95.183 6.78007 93.6033 -2.73623 103.737 1.03905C120.494 8.72495 104.209 18.9901 108.843 22.1266C117.772 31.6815 123.199 42.2359 125.125 53.7901C127.722 69.7088 124.539 84.759 115.575 98.9408C106.268 112.565 92.5626 121.319 74.457 125.203C51.4554 128.392 32.0904 122.01 16.3616 106.056C3.40413 92.3657 -1.85716 75.0731 0.577772 54.1783C4.10757 39.2919 9.76675 28.511 17.5552 21.8355C21.7709 18.9203 8.66227 13.7954 17.7543 4.11161C31.4448 -7.26968 31.5147 8.42377 33.6376 9.96565Z" fill="#2B2A29" stroke="#2B2A29" stroke-width="0.288" stroke-miterlimit="22.9256"/>
<path d="M15.0126 36.5901C14.7737 36.9924 14.2458 37.1295 13.8335 36.8966C13.4211 36.6637 13.2804 36.1487 13.5192 35.7465C15.0156 33.2409 16.5402 31.1205 18.2352 29.1408C19.9178 27.1754 21.7778 25.3419 23.9539 23.3996C24.3047 23.0866 24.8493 23.1102 25.1702 23.4523C25.4911 23.7944 25.4669 24.3256 25.1161 24.6386C23.0126 26.5162 21.207 28.2975 19.5596 30.2217C17.9244 32.1315 16.4543 34.1758 15.0126 36.5901Z" fill="#E31E24" stroke="#FF0000" stroke-width="0.288" stroke-miterlimit="22.9256"/>
<path d="M100.922 24.1576C100.566 23.8482 100.534 23.3156 100.852 22.9679C101.169 22.6204 101.715 22.5894 102.071 22.8987C108.172 28.2035 113.124 34.7432 116.514 42.1176C119.778 49.2149 121.593 57.0793 121.593 65.353C121.593 81.0547 115.068 95.27 104.518 105.56C93.9686 115.85 79.3944 122.214 63.2962 122.214C47.198 122.214 32.6237 115.85 22.074 105.56C11.5243 95.27 4.99911 81.0547 4.99911 65.353C4.99911 62.7139 5.18594 60.106 5.54745 57.5415C5.91526 54.9316 6.46315 52.3826 7.17814 49.9069C7.30692 49.4592 7.7834 49.198 8.24241 49.3236C8.70142 49.4492 8.9691 49.9139 8.8404 50.3616C8.14446 52.7714 7.6124 55.2436 7.25696 57.7656C6.90888 60.2351 6.72895 62.7678 6.72895 65.353C6.72895 80.589 13.0604 94.3825 23.297 104.367C33.5336 114.351 47.6755 120.527 63.2962 120.527C78.9168 120.527 93.0587 114.351 103.295 104.367C113.532 94.3825 119.863 80.589 119.863 65.353C119.863 57.3151 118.104 49.6833 114.94 42.8031C111.653 35.6537 106.847 29.309 100.922 24.1576Z" fill="#E31E24" stroke="#FF0000" stroke-width="0.288" stroke-miterlimit="22.9256"/>
<path d="M31.5315 19.6902C31.1378 19.9504 30.6023 19.8501 30.3354 19.4661C30.0686 19.082 30.1715 18.5598 30.5652 18.2995C35.3129 15.1515 40.5594 12.6691 46.1638 10.9904C51.5864 9.36611 57.3398 8.4917 63.2962 8.4917C69.1006 8.4917 74.7094 9.32112 80.0048 10.8647C85.4765 12.4597 90.6151 14.8212 95.2901 17.8217C95.6876 18.0765 95.798 18.5973 95.5368 18.985C95.2756 19.3726 94.7416 19.4803 94.3442 19.2255C89.8166 16.3198 84.8306 14.0299 79.5115 12.4794C74.3778 10.983 68.9349 10.1789 63.2962 10.1789C57.5043 10.1789 51.9216 11.0256 46.6706 12.5985C41.2273 14.229 36.1354 16.6374 31.5315 19.6902Z" fill="#E31E24" stroke="#FF0000" stroke-width="0.288" stroke-miterlimit="22.9256"/>
<path d="M14.6659 61.7601C14.6491 62.2242 14.2497 62.5871 13.774 62.5707C13.2982 62.5544 12.9261 62.1648 12.9428 61.7007C13.1263 57.014 13.8821 52.6946 15.2101 48.7427C16.5431 44.7757 18.4534 41.1746 20.9408 37.9394C21.2262 37.5682 21.7663 37.4929 22.147 37.7714C22.5275 38.0498 22.6047 38.5766 22.3192 38.9478C19.9499 42.0295 18.1275 45.4681 16.8521 49.2633C15.5716 53.0737 14.8429 57.2393 14.6659 61.7601Z" fill="#E31E24" stroke="#FF0000" stroke-width="0.288" stroke-miterlimit="22.9256"/>
<path d="M112.947 61.5253C112.99 61.9875 112.641 62.3962 112.167 62.4381C111.693 62.4799 111.274 62.1391 111.231 61.6768C110.769 56.7673 109.906 52.4417 108.642 48.7001C107.39 44.994 105.748 41.8769 103.717 39.3491C103.424 38.9832 103.491 38.4551 103.866 38.1693C104.241 37.8837 104.782 37.9485 105.075 38.3143C107.236 41.003 108.972 44.2892 110.284 48.1729C111.584 52.021 112.472 56.4719 112.947 61.5253Z" fill="#E31E24" stroke="#FF0000" stroke-width="0.288" stroke-miterlimit="22.9256"/>
<path d="M78.9642 40.8905C78.6051 40.7286 78.3959 40.3406 78.4829 39.9477C79.0936 37.2373 80.2488 34.6722 81.9484 32.2529C83.6331 29.8547 85.8544 27.6007 88.6122 25.4911C88.6488 25.4633 88.6869 25.4388 88.7262 25.4176C93.4069 22.6476 97.0657 20.1466 99.7025 17.915C102.221 15.7835 103.77 13.9338 104.349 12.3658C104.559 10.9328 104.298 9.77142 103.564 8.88164C102.78 7.92998 101.443 7.2323 99.5544 6.78884C99.0917 6.68152 98.8058 6.22855 98.9159 5.77719C99.0259 5.32582 99.4903 5.04696 99.9531 5.15435C102.229 5.6886 103.881 6.57962 104.909 7.82719C105.972 9.11661 106.352 10.7335 106.049 12.6772C106.042 12.7326 106.029 12.7882 106.009 12.843C105.351 14.7073 103.625 16.822 100.831 19.1869C98.133 21.4704 94.4022 24.0222 89.6391 26.842C87.0427 28.8327 84.9543 30.9527 83.3742 33.2019C81.8671 35.3472 80.8241 37.6114 80.2447 39.9941C82.0277 38.8181 83.8577 37.9087 85.7349 37.2662C88.118 36.4503 90.5732 36.0666 93.1005 36.1148C95.6646 36.0014 97.6911 35.6069 99.1797 34.9314C100.525 34.3208 101.41 33.4784 101.835 32.4045C102.03 31.3943 101.839 30.4653 101.263 29.6176C100.627 28.6825 99.5279 27.8202 97.9664 27.0309C97.5429 26.8179 97.3765 26.3104 97.5948 25.8973C97.8131 25.4842 98.3335 25.3219 98.757 25.5348C100.586 26.4593 101.901 27.5106 102.702 28.6884C103.552 29.9389 103.825 31.3052 103.521 32.7868L103.518 32.7864C103.51 32.8274 103.498 32.8682 103.483 32.9087C102.905 34.4556 101.712 35.6395 99.9027 36.4604C98.2109 37.2282 95.9631 37.6735 93.1594 37.7962L93.1594 37.7955C93.1415 37.7962 93.1235 37.7965 93.1054 37.7962C90.773 37.7477 88.5054 38.1004 86.3025 38.8545C84.1002 39.6083 81.9589 40.7656 79.8785 42.326C79.8654 42.3366 79.852 42.3469 79.838 42.3568C79.1132 42.8784 78.3939 43.7609 77.6801 45.0041C76.9303 46.3099 76.2046 47.9855 75.5031 50.0305C75.352 50.471 74.8635 50.7085 74.4119 50.5611C73.9604 50.4137 73.7168 49.9371 73.868 49.4967C74.6072 47.3417 75.3756 45.5695 76.1732 44.1803C77.0069 42.7283 77.8884 41.6679 78.8178 40.9991L78.8283 40.9918C78.8736 40.9578 78.9189 40.9241 78.9642 40.8905Z" fill="#E31E24" stroke="#FF0000" stroke-width="0.288" stroke-miterlimit="22.9256"/>
<path d="M47.2509 39.3412C47.402 39.7817 47.1585 40.2582 46.7069 40.4056C46.6687 40.4181 46.6302 40.4278 46.5916 40.4348C47.8907 41.5028 49.0098 42.7596 49.9486 44.2054C49.9606 44.2239 49.9717 44.2426 49.9819 44.2617L49.9824 44.2614C50.5219 45.2544 50.97 46.2 51.3267 47.0979C51.6866 48.0037 51.9508 48.8579 52.1193 49.6604C52.2145 50.1153 51.9135 50.5595 51.447 50.6523C50.9806 50.7451 50.5253 50.4515 50.4301 49.9965C50.2812 49.2875 50.044 48.5234 49.7185 47.7042C49.393 46.885 48.9767 46.0075 48.4696 45.072C46.9961 42.8141 45.0243 41.07 42.5545 39.8401C40.0548 38.5953 37.0416 37.8722 33.5154 37.6705C31.6272 37.8044 29.9079 37.6667 28.3578 37.2574C26.7863 36.8426 25.3913 36.1496 24.1732 35.1789C24.1185 35.14 24.0676 35.0943 24.022 35.0417C22.5736 33.3769 22.1056 31.729 22.618 30.0979C23.1019 28.5579 24.4797 27.1113 26.7515 25.7586C27.1583 25.5165 27.6893 25.6419 27.9375 26.0387C28.1856 26.4354 28.057 26.9533 27.6503 27.1953C25.7507 28.3264 24.6228 29.4588 24.2667 30.5922C23.944 31.6195 24.2864 32.7224 25.2939 33.9011C26.3109 34.7041 27.4809 35.2803 28.8037 35.6296C30.18 35.9929 31.7245 36.1119 33.437 35.9864C33.4915 35.9823 33.545 35.9835 33.5974 35.9892C37.3781 36.2037 40.6253 36.9864 43.3384 38.3375C44.1133 38.7234 44.8444 39.1552 45.5317 39.633C44.3321 36.2092 42.7496 33.3141 40.784 30.9482C38.7867 28.5441 36.3888 26.681 33.5903 25.359C33.5486 25.3394 33.5092 25.3168 33.4723 25.2918C29.1178 22.6645 25.8289 20.2668 23.6063 18.0989C21.2601 15.8104 20.0488 13.7195 19.9727 11.8263C19.9003 10.0808 20.3562 8.63962 21.3405 7.50287C22.3006 6.39377 23.7444 5.61095 25.6717 5.15439C26.1345 5.04517 26.6004 5.32257 26.7123 5.77394C26.8243 6.2253 26.5399 6.67973 26.0771 6.78888C24.5177 7.15831 23.378 7.75884 22.6581 8.59031C21.9622 9.39406 21.6414 10.4508 21.6957 11.7604C21.754 13.21 22.7986 14.9253 24.8293 16.906C26.9691 18.9931 30.1504 21.3107 34.3726 23.8585C37.3877 25.2885 39.9709 27.2981 42.1218 29.8871C44.2661 32.4679 45.9757 35.6193 47.2509 39.3412Z" fill="#E31E24" stroke="#FF0000" stroke-width="0.288" stroke-miterlimit="22.9256"/>
<path d="M41.4859 22.7781C41.053 22.971 40.5417 22.7851 40.3439 22.3628C40.1462 21.9407 40.3367 21.4419 40.7696 21.249C48.0471 17.9856 55.3629 16.3647 62.7169 16.3867C70.072 16.4086 77.4526 18.0725 84.8585 21.3784C85.2914 21.5713 85.4819 22.0701 85.2842 22.4922C85.0864 22.9145 84.5751 23.1004 84.1422 22.9075C76.9611 19.7019 69.8192 18.0885 62.7169 18.0673C55.6134 18.0461 48.5364 19.6164 41.4859 22.7781Z" fill="#E31E24" stroke="#FF0000" stroke-width="0.288" stroke-miterlimit="22.9256"/>
<path d="M50.2913 34.1869C50.211 33.7283 50.5271 33.293 50.9973 33.2148C51.4676 33.1366 51.9138 33.4449 51.994 33.9035C52.3684 36.032 52.8422 37.6908 53.4151 38.8796C53.9258 39.9393 54.4912 40.5903 55.1112 40.8324L55.1258 40.8383C55.7132 41.0546 56.502 41.1345 57.4918 41.0777C58.5497 41.017 59.8131 40.7993 61.2819 40.4249C61.8345 40.2235 62.4057 40.1227 62.9956 40.1227C63.5678 40.1227 64.1609 40.2208 64.7749 40.4168L64.7755 40.4146C65.7147 40.6777 66.6238 40.8815 67.5024 41.026C68.3895 41.1719 69.2468 41.2601 70.0739 41.2906L70.0774 41.2908C70.8638 41.3143 71.5775 40.8106 72.2186 39.7798C72.9809 38.5539 73.609 36.6554 74.1031 34.0843C74.1908 33.6276 74.6415 33.3266 75.1099 33.4121C75.5782 33.4977 75.8868 33.9374 75.7991 34.3942C75.2677 37.1598 74.5652 39.245 73.6916 40.6497C72.703 42.2395 71.4843 43.0134 70.0357 42.9717C70.0282 42.9716 70.0207 42.9714 70.0131 42.9712C69.0978 42.9376 68.1662 42.8428 67.2186 42.6869C66.2624 42.5295 65.2903 42.3125 64.3025 42.0359L64.3034 42.0331C64.2918 42.0299 64.2803 42.0265 64.2687 42.0228C63.8319 41.8809 63.4075 41.8099 62.9956 41.8099C62.603 41.8099 62.2251 41.8776 61.8621 42.0129L61.8618 42.0119C61.8334 42.0224 61.8042 42.0316 61.7743 42.0392C60.1711 42.4507 58.7774 42.6904 57.5932 42.7583C56.3584 42.8292 55.3312 42.7129 54.5117 42.4098C54.4974 42.405 54.4833 42.3999 54.4692 42.3944C53.4311 41.9888 52.5594 41.0544 51.8543 39.5913C51.2115 38.2576 50.6905 36.456 50.2913 34.1869Z" fill="#E31E24" stroke="#FF0000" stroke-width="0.288" stroke-miterlimit="22.9256"/>
<path d="M31.1227 48.0342C31.2962 48.4674 31.0769 48.9557 30.6328 49.125C30.1887 49.2942 29.688 49.0802 29.5145 48.6471C29.0143 47.3992 28.817 46.3505 28.9225 45.5014C29.0481 44.491 29.5608 43.7638 30.4607 43.3201C30.5028 43.2993 30.546 43.2823 30.5895 43.2689L30.5891 43.2673C31.7371 42.9138 33.2127 43.195 35.0159 44.1109C36.6506 44.9415 38.6177 46.3205 40.9168 48.2479L50.0681 54.9099L50.0726 54.9134C51.656 55.9646 52.9819 56.4812 54.0503 56.4629C54.9681 56.4472 55.7265 55.9903 56.3255 55.0922C56.4552 54.6704 56.5193 54.2977 56.5179 53.9741C56.5162 53.5989 56.4213 53.2957 56.233 53.0645C56.029 52.8139 55.7019 52.6184 55.2519 52.4781C54.6906 52.3031 53.963 52.2175 53.0694 52.2212C52.5937 52.223 52.2063 51.8483 52.2045 51.3842C52.2027 50.9202 52.5869 50.5424 53.0626 50.5406C54.1361 50.536 55.0393 50.648 55.7722 50.8766C56.5621 51.1228 57.1662 51.5029 57.5845 52.0167C58.0187 52.5499 58.2376 53.2002 58.241 53.9675C58.2432 54.4773 58.1471 55.0375 57.9524 55.6481C57.9315 55.7353 57.8958 55.8207 57.8447 55.9009C56.9083 57.369 55.6524 58.1166 54.0773 58.1436C53.9927 58.145 53.9071 58.1442 53.8208 58.1412C53.8512 58.3995 53.7585 58.6681 53.5468 58.857C50.8782 61.2349 48.4782 62.2123 46.3465 61.789C44.2006 61.3629 42.4494 59.5535 41.0931 56.3612C40.9102 55.9317 41.1189 55.4389 41.5593 55.2606C41.9996 55.0823 42.5049 55.2859 42.6877 55.7154C43.8109 58.359 45.1455 59.8344 46.6912 60.1413C48.1938 60.4397 50.0099 59.6702 52.139 57.8333C51.2016 57.5365 50.1896 57.0275 49.1028 56.3061C49.0795 56.2922 49.0566 56.2773 49.0342 56.261L39.8822 49.5984L39.8834 49.5969C39.8669 49.5849 39.8507 49.5722 39.8349 49.5588C37.6281 47.7054 35.7559 46.3881 34.2186 45.6071C32.8793 44.9268 31.8637 44.677 31.1718 44.8578C30.8645 45.0328 30.6867 45.3134 30.6388 45.6991C30.5676 46.273 30.7288 47.0514 31.1227 48.0342Z" fill="#E31E24" stroke="#FF0000" stroke-width="0.288" stroke-miterlimit="22.9256"/>
<path d="M96.3806 48.6471C96.2071 49.0802 95.7064 49.2942 95.2623 49.125C94.8183 48.9557 94.5989 48.4674 94.7724 48.0342C95.1663 47.0514 95.3276 46.273 95.2563 45.6991C95.2084 45.3134 95.0307 45.0328 94.7233 44.8578C94.0314 44.677 93.0158 44.9268 91.6766 45.6071C90.1392 46.3881 88.267 47.7054 86.0602 49.5588C86.0444 49.5722 86.0282 49.5849 86.0117 49.5969L86.0129 49.5984L76.8609 56.261C76.8386 56.2773 76.8156 56.2922 76.7923 56.3061C75.8242 56.9487 74.9154 57.4229 74.0659 57.7285C75.2092 58.7305 76.2723 59.4302 77.2549 59.8274C78.1389 60.1847 78.9463 60.2857 79.677 60.1304C80.4057 59.9757 81.0868 59.5602 81.7199 58.8843C82.4171 58.14 83.0563 57.0836 83.6376 55.7154C83.8205 55.2859 84.3258 55.0823 84.766 55.2606C85.2064 55.4389 85.4152 55.9317 85.2323 56.3612C84.5776 57.9021 83.8302 59.1211 82.9902 60.0179C82.1063 60.9616 81.1234 61.5484 80.0418 61.7781C78.9622 62.0075 77.8124 61.8758 76.5927 61.3827C75.3974 60.8997 74.126 60.0577 72.7786 58.857C72.5578 58.66 72.4665 58.3764 72.5091 58.108C72.2732 58.1355 72.0427 58.1474 71.8178 58.1436C70.2427 58.1166 68.9868 57.369 68.0504 55.9009C67.9993 55.8207 67.9636 55.7353 67.9427 55.6481C67.7481 55.0375 67.6519 54.4773 67.6541 53.9675C67.6576 53.2002 67.8764 52.5499 68.3106 52.0167C68.729 51.5028 69.3331 51.1228 70.1229 50.8766C70.8558 50.648 71.759 50.536 72.8325 50.5406C73.3083 50.5424 73.6925 50.9202 73.6906 51.3842C73.6888 51.8483 73.3015 52.223 72.8257 52.2212C71.9321 52.2175 71.2046 52.3031 70.6432 52.4781C70.1932 52.6184 69.8661 52.8139 69.6621 53.0645C69.4739 53.2957 69.3789 53.5989 69.3772 53.9741C69.3758 54.2977 69.4399 54.6704 69.5696 55.0922C70.1685 55.9903 70.927 56.4472 71.8448 56.4629C72.9132 56.4812 74.2391 55.9646 75.8225 54.9134L75.8271 54.9099L84.9784 48.2479C87.2774 46.3205 89.2445 44.9415 90.8793 44.1109C92.6825 43.195 94.1581 42.9138 95.306 43.2673L95.3056 43.2689C95.3492 43.2823 95.3923 43.2993 95.4345 43.3201C96.3343 43.7638 96.8471 44.491 96.9726 45.5014C97.0782 46.3505 96.8808 47.3992 96.3806 48.6471Z" fill="#E31E24" stroke="#FF0000" stroke-width="0.288" stroke-miterlimit="22.9256"/>
<path d="M62.6796 52.8038C62.6796 52.338 63.0668 51.9602 63.5445 51.9602C64.0222 51.9602 64.4094 52.338 64.4094 52.8038V58.1728C64.4094 58.6387 64.0222 59.0164 63.5445 59.0164C63.0668 59.0164 62.6796 58.6387 62.6796 58.1728V52.8038Z" fill="#E31E24" stroke="#FF0000" stroke-width="0.288" stroke-miterlimit="22.9256"/>
<path d="M57.2228 66.7876C56.7769 66.9532 56.2777 66.7349 56.1079 66.2999C55.9381 65.865 56.1619 65.3781 56.6079 65.2124C58.7481 64.4175 60.8617 64.0172 62.9485 64.0115C65.0369 64.0058 67.0844 64.3976 69.0909 65.1867C69.5331 65.3596 69.7479 65.8495 69.5706 66.2808C69.3933 66.7121 68.8911 66.9215 68.4489 66.7487C66.6452 66.0392 64.8116 65.6871 62.9485 65.6922C61.084 65.6972 59.1753 66.0624 57.2228 66.7876Z" fill="#E31E24" stroke="#FF0000" stroke-width="0.288" stroke-miterlimit="22.9256"/>
<path d="M57.3323 71.9295C56.8864 72.0951 56.3872 71.8768 56.2174 71.4418C56.0476 71.0068 56.2715 70.5199 56.7175 70.3543C58.8576 69.5594 60.9713 69.159 63.0581 69.1534C65.1465 69.1477 67.1939 69.5394 69.2004 70.3286C69.6426 70.5015 69.8575 70.9913 69.6801 71.4226C69.5029 71.854 69.0007 72.0635 68.5585 71.8905C66.7547 71.1811 64.9211 70.8289 63.0581 70.834C61.1935 70.8391 59.2848 71.2043 57.3323 71.9295Z" fill="#E31E24" stroke="#FF0000" stroke-width="0.288" stroke-miterlimit="22.9256"/>
<path d="M57.2829 78.2362C56.8369 78.4018 56.3378 78.1834 56.168 77.7484C55.9982 77.3135 56.2221 76.8265 56.668 76.661C58.8082 75.866 60.9218 75.4657 63.0086 75.46C65.097 75.4544 67.1445 75.8461 69.151 76.6352C69.5932 76.8081 69.808 77.298 69.6307 77.7293C69.4535 78.1606 68.9513 78.3701 68.5091 78.1972C66.7053 77.4878 64.8717 77.1356 63.0086 77.1407C61.1441 77.1457 59.2354 77.511 57.2829 78.2362Z" fill="#E31E24" stroke="#FF0000" stroke-width="0.288" stroke-miterlimit="22.9256"/>
<path d="M41.392 65.6922C40.9162 65.7086 40.5168 65.3456 40.5 64.8815C40.4833 64.4175 40.8554 64.0279 41.3312 64.0115C41.7327 63.997 42.1245 63.9951 42.5063 64.0058C45.3367 64.0853 47.5073 64.8645 49.0179 66.3433C50.5251 67.8186 51.3318 69.9506 51.4379 72.7392C51.4524 73.1215 51.4536 73.5188 51.4415 73.9309C51.4284 74.395 51.032 74.7608 50.5563 74.7482C50.0805 74.7355 49.7053 74.3488 49.7184 73.8848C49.7293 73.5122 49.7282 73.1501 49.7149 72.7985C49.6256 70.4515 48.9855 68.6951 47.7949 67.5296C46.6077 66.3675 44.829 65.753 42.4591 65.6865C42.1177 65.6769 41.762 65.6788 41.392 65.6922Z" fill="#E31E24" stroke="#FF0000" stroke-width="0.288" stroke-miterlimit="22.9256"/>
<path d="M84.7003 64.0115C85.1761 64.0278 85.5482 64.4174 85.5314 64.8814C85.5146 65.3455 85.1153 65.7085 84.6395 65.6921C81.7251 65.5866 79.5882 66.2016 78.2288 67.5371C76.8661 68.8757 76.2276 70.9916 76.313 73.8847C76.326 74.3488 75.9509 74.7354 75.4752 74.7481C74.9993 74.7608 74.603 74.3949 74.59 73.9308C74.4904 70.5575 75.2956 68.0309 77.0057 66.3508C78.719 64.6677 81.2839 63.8879 84.7003 64.0115Z" fill="#E31E24" stroke="#FF0000" stroke-width="0.288" stroke-miterlimit="22.9256"/>
<path d="M53.9631 62.3968C53.9612 61.9328 54.3455 61.555 54.8213 61.5532C55.297 61.5514 55.6843 61.9262 55.6861 62.3902L55.7525 73.1928C55.7527 73.2536 55.7463 73.313 55.7339 73.3703L55.7356 73.3707C55.4854 74.5032 55.0617 75.5821 54.4646 76.6072C53.8745 77.62 53.1163 78.5771 52.1899 79.4782C51.7232 79.9404 51.5232 80.4427 51.5898 80.9852C51.6684 81.6232 52.0786 82.3569 52.8206 83.1862C52.8912 83.2648 52.944 83.3528 52.9794 83.4452C53.093 83.7137 53.176 83.973 53.2282 84.2232C53.3925 85.0096 53.2702 85.7085 52.8613 86.3197C52.4843 86.8835 51.8752 87.3378 51.0344 87.6828C50.5382 87.8862 49.9579 88.054 49.2936 88.186C48.8271 88.2788 48.3718 87.9853 48.2766 87.5302C48.1815 87.0753 48.4824 86.6312 48.949 86.5383C49.5056 86.4277 49.9778 86.2929 50.3654 86.1339C50.8812 85.9224 51.2313 85.6789 51.4154 85.4036C51.5677 85.1758 51.609 84.8944 51.539 84.5594C51.5139 84.4396 51.4761 84.3141 51.4257 84.1829C50.5074 83.129 49.9899 82.1289 49.8736 81.1829C49.7413 80.1082 50.1035 79.1467 50.9601 78.2984L50.9602 78.2985L50.9669 78.2919C51.7848 77.4972 52.4506 76.6587 52.9645 75.7767C53.459 74.9278 53.8138 74.0352 54.0289 73.099L53.9631 62.3968Z" fill="#E31E24" stroke="#FF0000" stroke-width="0.288" stroke-miterlimit="22.9256"/>
<path d="M69.9912 62.3902C69.993 61.9262 70.3803 61.5514 70.8561 61.5532C71.3319 61.555 71.7161 61.9328 71.7143 62.3968L71.6485 73.099C71.8636 74.0352 72.2184 74.9278 72.7129 75.7767C73.2267 76.6587 73.8926 77.4972 74.7105 78.2919L74.7172 78.2985V78.2984C75.5738 79.1467 75.936 80.1082 75.8038 81.1829C75.6874 82.1289 75.17 83.129 74.2517 84.1829C74.2012 84.3141 74.1634 84.4396 74.1384 84.5594C74.0684 84.8944 74.1097 85.1759 74.262 85.4036C74.4461 85.6789 74.7962 85.9224 75.3119 86.1339C75.6995 86.2929 76.1718 86.4277 76.7284 86.5383C77.1949 86.6312 77.4959 87.0753 77.4007 87.5302C77.3056 87.9853 76.8503 88.2788 76.3838 88.186C75.7193 88.054 75.1391 87.8862 74.6429 87.6828C73.8021 87.3378 73.1931 86.8835 72.816 86.3197C72.4071 85.7086 72.2849 85.0096 72.4491 84.2233C72.5013 83.9731 72.5844 83.7137 72.698 83.4452C72.7334 83.3528 72.7862 83.2648 72.8568 83.1862C73.5988 82.3569 74.009 81.6232 74.0875 80.9852C74.1542 80.4427 73.9542 79.9404 73.4874 79.4782C72.5611 78.5771 71.8028 77.6199 71.2128 76.6072C70.6157 75.5821 70.192 74.5032 69.9417 73.3707L69.9435 73.3703C69.9311 73.313 69.9246 73.2536 69.9249 73.1928L69.9912 62.3902Z" fill="#E31E24" stroke="#FF0000" stroke-width="0.288" stroke-miterlimit="22.9256"/>
<path d="M15.171 70.7309C14.9919 71.1622 14.4882 71.3703 14.046 71.1955C13.6038 71.0208 13.3904 70.5295 13.5696 70.0982C14.5248 67.7976 15.7543 66.1091 17.2577 65.033C18.8077 63.9234 20.617 63.4762 22.6851 63.6912C22.7 63.6927 22.7147 63.6946 22.7293 63.6969C25.016 64.0095 26.7989 64.7475 28.0776 65.9108C29.3857 67.1007 30.1429 68.7039 30.3492 70.7203C30.3533 70.7604 30.3543 70.8 30.3526 70.8392L30.3527 80.8613L30.3526 85.4216C30.3526 85.4292 30.3524 85.437 30.3522 85.4446H30.3526C30.3109 86.8765 30.5519 87.9893 31.0757 88.783C31.5458 89.4953 32.2749 89.9672 33.2627 90.1985C34.3038 90.0975 35.0789 89.7188 35.5876 89.0626C36.1585 88.3262 36.4477 87.2203 36.4552 85.745H36.4518V81.023C36.4518 80.9616 36.4586 80.9018 36.4714 80.8441C36.7628 78.8919 37.3464 77.3721 38.2221 76.2849C39.1627 75.1174 40.4122 74.4556 41.9707 74.2995C42.0226 74.2944 42.0739 74.2938 42.1243 74.2975C44.0336 74.389 45.5905 74.7196 46.795 75.2893C48.0972 75.9053 48.9949 76.7936 49.4878 77.9542L49.4945 77.9707L49.4946 77.9706C49.9444 79.1091 49.968 80.1103 49.5654 80.9741C49.1764 81.8088 48.4122 82.4613 47.273 82.9317C46.0843 83.5977 45.3244 84.3057 44.9938 85.0554C44.6973 85.7277 44.7504 86.4796 45.1534 87.3107C46.4173 88.9881 47.7402 89.8381 49.122 89.8601C50.5604 89.8831 52.1547 89.0393 53.9049 87.3288C55.4442 85.5533 56.9234 84.2446 58.3422 83.4029C59.8486 82.5094 61.3018 82.1261 62.7017 82.2529C64.9114 82.2636 66.7859 82.6732 68.3248 83.4818C69.8741 84.2959 71.0723 85.5034 71.9193 87.1037C73.4275 88.6715 74.8433 89.5911 76.1668 89.8623C77.4082 90.1168 78.6091 89.7791 79.7693 88.8494C80.6468 87.9959 81.0856 87.144 81.0856 86.2936C81.0856 85.4577 80.6687 84.5686 79.8348 83.6261C78.3458 82.9699 77.2818 82.2666 76.6433 81.5162C76.2504 81.0546 76.0095 80.5727 75.9207 80.0705C75.8283 79.5483 75.9003 79.025 76.1365 78.5008C76.4151 77.8825 76.9315 77.2681 77.6854 76.6577C77.6934 76.6512 77.7015 76.6449 77.7097 76.6388L77.7091 76.6379C81.7493 73.5953 85.2758 73.6703 88.2887 76.8629C88.358 76.9363 88.4112 77.0185 88.4489 77.1054C88.8489 77.8852 89.1479 78.8877 89.3456 80.1129C89.5393 81.313 89.6383 82.7407 89.6426 84.3959H89.6427C89.7112 86.5877 90.0444 88.1665 90.6423 89.132C91.122 89.9067 91.8129 90.2356 92.715 90.1186C92.7608 90.1127 92.8062 90.1106 92.851 90.1118C93.7905 90.1042 94.5121 89.6862 95.0153 88.8574C95.613 87.8729 95.9446 86.35 96.0098 84.2887L95.6792 73.3809C95.6786 73.3604 95.6788 73.3402 95.6797 73.3201C95.737 70.5446 96.2939 68.3546 97.3504 66.7504C98.4595 65.0662 100.085 64.0379 102.228 63.6655C102.28 63.6567 102.332 63.6526 102.383 63.6528C104.85 63.5248 106.911 63.9436 108.565 64.9093C110.256 65.8961 111.492 67.4297 112.273 69.5101C112.437 69.9469 112.208 70.4308 111.76 70.591C111.312 70.7511 110.816 70.5269 110.652 70.0901C110.009 68.3798 109.019 67.134 107.68 66.3527C106.332 65.5654 104.601 65.2255 102.489 65.3329C100.862 65.6239 99.6331 66.3996 98.8031 67.6599C97.9199 69.001 97.453 70.8978 97.4026 73.3501L97.7335 84.2665C97.7339 84.2818 97.734 84.2972 97.7335 84.3127C97.6609 86.6808 97.2503 88.4814 96.5018 89.7142C95.6716 91.0815 94.4667 91.7742 92.8875 91.7921C91.2641 91.9873 90.0223 91.3907 89.1625 90.0021C88.412 88.7899 87.9976 86.9365 87.9196 84.4421H87.9199C87.9197 84.4344 87.9196 84.4267 87.9196 84.4191C87.9163 82.8426 87.824 81.4929 87.6428 80.37C87.4791 79.3555 87.2453 78.5399 86.9415 77.9231C84.6582 75.5676 81.9321 75.5827 78.7631 77.9692L78.7628 77.9689C78.236 78.399 77.8875 78.8027 77.7177 79.1796C77.6212 79.3938 77.5897 79.5963 77.6235 79.7871C77.6608 79.9977 77.7755 80.2161 77.9677 80.4419C78.4532 81.0125 79.3649 81.5847 80.7023 82.1584C80.8126 82.205 80.9146 82.2749 81.0002 82.3677C82.2104 83.6819 82.8155 84.9905 82.8155 86.2936C82.8155 87.6149 82.1991 88.8707 80.9665 90.0609L80.9656 90.0601C80.9476 90.0776 80.9288 90.0943 80.909 90.1104C79.309 91.4114 77.611 91.878 75.8154 91.51C74.1206 91.1627 72.3826 90.0548 70.6013 88.1869C70.5356 88.1238 70.4793 88.0492 70.4358 87.9643C69.7507 86.6305 68.7745 85.6306 67.5072 84.9647C66.2137 84.285 64.6061 83.9413 62.6844 83.9335C62.6455 83.9349 62.6062 83.9338 62.5664 83.93C61.539 83.8309 60.4304 84.1341 59.2409 84.8398C57.9729 85.5919 56.632 86.7835 55.2183 88.4146C55.1941 88.4461 55.1675 88.4765 55.1382 88.5052C53.0394 90.5597 51.0249 91.5717 49.0949 91.5407C47.1205 91.5092 45.3267 90.4105 43.7135 88.2446L43.7142 88.2441C43.6862 88.2063 43.661 88.1658 43.6392 88.1226C42.9703 86.7978 42.8926 85.5535 43.4059 84.3896C43.8911 83.2898 44.9016 82.3118 46.4377 81.4558L46.4393 81.4586C46.4721 81.4403 46.5064 81.4239 46.5424 81.4096C47.2984 81.1079 47.7813 80.7321 47.991 80.2821C48.1955 79.8433 48.1617 79.2776 47.8896 78.5854C47.5649 77.8267 46.9499 77.2332 46.0449 76.8051C45.0573 76.338 43.7375 76.063 42.0854 75.9802C41.0433 76.0982 40.2082 76.5468 39.5803 77.3262C38.8945 78.1776 38.4283 79.4255 38.1816 81.0698V85.745H38.1783V85.7483C38.1694 87.6034 37.7653 89.0465 36.9661 90.0775C36.1239 91.164 34.8915 91.7681 33.2693 91.8896L33.2692 91.8893C33.1897 91.895 33.1079 91.8901 33.026 91.8731C31.5061 91.554 30.3717 90.8271 29.6229 89.6925C28.9087 88.6104 28.5776 87.179 28.6295 85.3985L28.6297 80.8613L28.6295 70.8535C28.4622 69.2756 27.8863 68.0388 26.9018 67.1432C25.8876 66.2206 24.4175 65.6274 22.4917 65.3641C20.871 65.1979 19.4664 65.54 18.278 66.3907C17.0403 67.2766 16.0046 68.7235 15.171 70.7309Z" fill="#E31E24" stroke="#FF0000" stroke-width="0.288" stroke-miterlimit="22.9256"/>
<path d="M53.0507 96.7353C53.1459 97.1902 52.8449 97.6343 52.3784 97.7272C51.912 97.82 51.4566 97.5264 51.3614 97.0714C51.1127 95.8939 51.2352 94.8967 51.7289 94.0802C52.2171 93.2728 53.0406 92.6884 54.1992 92.3269L55.4712 91.7865C55.5079 91.7679 55.5453 91.752 55.5834 91.7389L59.5545 90.0517C59.6103 90.028 59.6672 90.0105 59.7245 89.9989C61.062 89.6823 62.3101 89.5239 63.4687 89.5239C64.6592 89.5239 65.7702 89.6912 66.8013 90.0254C66.8299 90.0346 66.8578 90.0452 66.8848 90.0571L66.8857 90.055L73.4845 92.9658C73.5418 92.9911 73.5949 93.0216 73.6435 93.0566C74.3778 93.5528 74.8157 94.1761 74.957 94.9263C75.091 95.6382 74.9377 96.4225 74.497 97.279C74.2843 97.694 73.7669 97.8621 73.3415 97.6547C72.9161 97.4472 72.7437 96.9426 72.9563 96.5277C73.2243 96.007 73.3258 95.5742 73.2609 95.2295C73.2081 94.9492 73.0218 94.6957 72.7019 94.4692L70.8032 93.6318C70.6693 93.9215 70.5267 94.2239 70.3762 94.5142C69.5036 96.1974 68.285 97.7403 66.2996 96.8247C64.3208 96.3191 62.0327 96.3248 59.4357 96.8418C58.894 97.0215 58.3948 97.0205 57.9381 96.8387C57.4896 96.6601 57.1251 96.3238 56.8446 95.8298C56.8401 95.8227 56.8356 95.8156 56.8313 95.8083L55.5111 93.6046L54.878 93.8735C54.8377 93.8931 54.7952 93.9098 54.7508 93.9233C53.9963 94.154 53.4845 94.4919 53.2154 94.937C52.9464 95.3819 52.8916 95.9813 53.0507 96.7353ZM69.2322 92.9388L66.1983 91.6004C65.3734 91.3409 64.4636 91.2112 63.4687 91.2112C62.4465 91.2112 61.349 91.3483 60.1766 91.6225L57.1074 92.9264L58.3246 94.9581C58.3382 94.9808 58.3505 95.0038 58.3616 95.0272C58.4409 95.1654 58.516 95.2486 58.5868 95.2767C58.6546 95.3037 58.762 95.2912 58.9088 95.2391C58.959 95.2214 59.0097 95.2085 59.0604 95.2002C61.9729 94.6161 64.5596 94.6214 66.8203 95.2161C66.8888 95.2339 66.9532 95.2594 67.0127 95.2912C67.7241 95.6122 68.3428 94.7068 68.8355 93.7562C68.9804 93.4768 69.111 93.2007 69.2322 92.9388Z" fill="#E31E24" stroke="#FF0000" stroke-width="0.288" stroke-miterlimit="22.9256"/>
<path d="M15.3749 81.4626C15.1808 81.0386 15.376 80.5413 15.8108 80.352C16.2455 80.1628 16.7552 80.3531 16.9493 80.7771C20.0897 87.6402 23.8581 93.3113 28.2543 97.7902C32.6299 102.248 37.6326 105.528 43.2624 107.63C43.7084 107.795 43.9322 108.282 43.7624 108.717C43.5926 109.152 43.0934 109.37 42.6475 109.205C36.7785 107.014 31.5663 103.598 27.011 98.9567C22.4761 94.3366 18.5974 88.5051 15.3749 81.4626Z" fill="#E31E24" stroke="#FF0000" stroke-width="0.288" stroke-miterlimit="22.9256"/>
<path d="M108.817 80.7771C109.011 80.3531 109.52 80.1628 109.955 80.352C110.39 80.5413 110.585 81.0386 110.391 81.4626C107.168 88.5052 103.29 94.3366 98.755 98.9568C94.1997 103.598 88.9875 107.014 83.1185 109.205C82.6725 109.37 82.1733 109.152 82.0035 108.717C81.8338 108.282 82.0576 107.795 82.5035 107.63C88.1334 105.528 93.1361 102.248 97.5117 97.7903C101.908 93.3113 105.676 87.6402 108.817 80.7771Z" fill="#E31E24" stroke="#FF0000" stroke-width="0.288" stroke-miterlimit="22.9256"/>
<path d="M48.9945 110.664C48.5467 110.505 48.3152 110.023 48.4776 109.586C48.6399 109.149 49.1346 108.924 49.5823 109.082C50.7379 109.493 51.8111 109.807 52.8017 110.025C53.7784 110.241 54.6734 110.362 55.4865 110.391C55.9623 110.407 56.3344 110.797 56.3176 111.261C56.3008 111.725 55.9014 112.088 55.4256 112.071C54.5032 112.039 53.5023 111.904 52.4232 111.666C51.3581 111.432 50.2151 111.098 48.9945 110.664Z" fill="#E31E24" stroke="#FF0000" stroke-width="0.288" stroke-miterlimit="22.9256"/>
<path d="M58.9826 112.262C58.5086 112.215 58.1638 111.802 58.2122 111.34C58.2608 110.877 58.6844 110.541 59.1583 110.588C60.6076 110.735 61.9963 110.809 63.3239 110.809C64.6445 110.809 65.8755 110.736 67.0168 110.592C67.4888 110.531 67.9214 110.856 67.983 111.316C68.0445 111.777 67.7118 112.199 67.2397 112.259C65.9945 112.417 64.6892 112.496 63.3239 112.496C61.9656 112.496 60.5185 112.418 58.9826 112.262Z" fill="#E31E24" stroke="#FF0000" stroke-width="0.288" stroke-miterlimit="22.9256"/>
<path d="M70.9532 111.939C70.4792 111.981 70.0602 111.64 70.0173 111.177C69.9744 110.715 70.3238 110.306 70.7977 110.265C71.9162 110.164 72.9609 110.001 73.9314 109.773C74.8823 109.55 75.7705 109.261 76.5957 108.908C77.0323 108.72 77.542 108.913 77.7343 109.339C77.9264 109.765 77.7283 110.262 77.2916 110.45C76.3891 110.837 75.4018 111.156 74.33 111.407C73.2779 111.654 72.1522 111.831 70.9532 111.939Z" fill="#E31E24" stroke="#FF0000" stroke-width="0.288" stroke-miterlimit="22.9256"/>
</svg>
