<svg width="118" height="86" viewBox="0 0 118 86" fill="none" xmlns="http://www.w3.org/2000/svg">
<path d="M16.5469 74.515V72.546L18.1859 72.106V68.3H21.0569V71.325L26.6779 69.807V68.3H29.5489V71.006L25.1159 72.205L27.7119 74.35H29.6149V76H26.0069L22.3879 72.931L21.0569 73.294V76H18.1859V74.075L16.5469 74.515ZM31.3728 76V70.17H34.1228V73.58L38.5778 71.864V70.17H41.3278V70.808L42.7028 70.28V71.985L41.3278 72.513V76H38.5778V73.569L34.1228 75.285V76H31.3728ZM43.0341 72.7V70.17H53.3741V72.7L50.6241 72.425V71.6H49.5791V76H46.8291V71.6H45.7841V72.425L43.0341 72.7ZM54.6941 76V73.085L61.7891 72.205V71.6H57.4441V72.095L54.6941 72.37V70.17H64.5391V76H62.5701L62.0091 75.45L61.4591 76H54.6941ZM57.4441 74.57H61.7891V73.536L57.4441 74.075V74.57ZM66.5213 76V70.17H69.2713V73.58L73.7263 71.864V70.17H76.4763V70.808L77.8513 70.28V71.985L76.4763 72.513V76H73.7263V73.569L69.2713 75.285V76H66.5213ZM69.9863 70.335V68.905L71.1413 68.465V67.53H73.8913V68.85L69.9863 70.335ZM77.8525 75.054V73.36L79.2275 73.041V70.17H81.9775V72.425L86.1025 71.49V70.17H88.8525V72.535L85.6075 73.261L87.1475 74.57H88.8525V76H85.6075L83.1325 73.8L81.9775 74.075V76H79.2275V74.735L77.8525 75.054ZM90.616 76V73.085L97.711 72.205V71.6H93.366V72.095L90.616 72.37V70.17H100.461V76H98.492L97.931 75.45L97.381 76H90.616ZM93.366 74.57H97.711V73.536L93.366 74.075V74.57Z" fill="#E31E24"/>
<path fill-rule="evenodd" clip-rule="evenodd" d="M41.7554 5.98282C53.7692 1.60493 65.2982 1.58339 76.3423 5.91816C77.9011 4.39003 76.9734 -0.368114 82.9248 1.51953C92.7662 5.36248 83.2024 10.495 85.9239 12.0633C91.1678 16.8407 94.3551 22.118 95.486 27.8951C97.0114 35.8544 95.1418 43.3795 89.8773 50.4704C84.4116 57.2823 76.3621 61.6594 65.7287 63.6015C52.2199 65.1961 40.8467 62.0049 31.6092 54.0281C23.9993 47.1829 20.9093 38.5366 22.3393 28.0891C24.4124 20.646 27.736 15.2555 32.3102 11.9177C34.7861 10.4601 27.0874 7.89768 32.4272 3.05581C40.4676 -2.63484 40.5086 5.21189 41.7554 5.98282Z" fill="#FEFEFE" stroke="#2B2A29" stroke-width="0.288" stroke-miterlimit="22.9256"/>
<path d="M30.8169 19.2951C30.6766 19.4962 30.3666 19.5648 30.1245 19.4484C29.8823 19.3319 29.7996 19.0744 29.9399 18.8733C30.8187 17.6205 31.7141 16.5603 32.7096 15.5704C33.6978 14.5878 34.7902 13.671 36.0682 12.6999C36.2742 12.5433 36.594 12.5552 36.7825 12.7262C36.971 12.8973 36.9568 13.1629 36.7508 13.3194C35.5154 14.2582 34.4549 15.1488 33.4874 16.1109C32.527 17.0658 31.6636 18.088 30.8169 19.2951Z" fill="#E31E24" stroke="#FF0000" stroke-width="0.288" stroke-miterlimit="22.9256"/>
<path d="M81.2718 13.0787C81.0626 12.924 81.0439 12.6577 81.2302 12.4839C81.4165 12.3101 81.7372 12.2946 81.9465 12.4493C85.5294 15.1017 88.4376 18.3716 90.429 22.0588C92.3456 25.6074 93.4118 29.5396 93.4118 33.6764C93.4118 41.5273 89.5796 48.6349 83.3837 53.7799C77.1878 58.9248 68.6284 62.107 59.1739 62.107C49.7194 62.107 41.1599 58.9248 34.964 53.7799C28.7682 48.635 24.9359 41.5273 24.9359 33.6764C24.9359 32.3569 25.0456 31.0529 25.258 29.7707C25.474 28.4657 25.7957 27.1912 26.2157 25.9534C26.2913 25.7295 26.5711 25.599 26.8407 25.6618C27.1103 25.7245 27.2675 25.9569 27.1919 26.1808C26.7832 27.3856 26.4707 28.6217 26.262 29.8827C26.0575 31.1175 25.9519 32.3838 25.9519 33.6764C25.9519 41.2944 29.6703 48.1912 35.6823 53.1834C41.6943 58.1757 49.9998 61.2634 59.1739 61.2634C68.3479 61.2634 76.6534 58.1757 82.6654 53.1834C88.6774 48.1912 92.3959 41.2944 92.3959 33.6764C92.3959 29.6575 91.3623 25.8416 89.5044 22.4015C87.5737 18.8268 84.7512 15.6544 81.2718 13.0787Z" fill="#E31E24" stroke="#FF0000" stroke-width="0.288" stroke-miterlimit="22.9256"/>
<path d="M40.5185 10.845C40.2872 10.9751 39.9727 10.9249 39.816 10.7329C39.6593 10.5409 39.7197 10.2798 39.951 10.1496C42.7393 8.57561 45.8206 7.33443 49.1121 6.49506C52.2967 5.68294 55.6757 5.24573 59.1739 5.24573C62.5829 5.24573 65.8769 5.66044 68.9869 6.43222C72.2005 7.22971 75.2183 8.4105 77.964 9.91072C78.1974 10.0381 78.2623 10.2985 78.1089 10.4924C77.9555 10.6862 77.6418 10.74 77.4085 10.6126C74.7494 9.15978 71.8211 8.01481 68.6972 7.23959C65.6822 6.49136 62.4856 6.08935 59.1739 6.08935C55.7723 6.08935 52.4936 6.51269 49.4097 7.29914C46.2128 8.11437 43.2223 9.3186 40.5185 10.845Z" fill="#E31E24" stroke="#FF0000" stroke-width="0.288" stroke-miterlimit="22.9256"/>
<path d="M30.6134 31.8801C30.6035 32.1121 30.3689 32.2936 30.0895 32.2854C29.8101 32.2773 29.5916 32.0825 29.6014 31.8504C29.7091 29.507 30.153 27.3473 30.933 25.3714C31.7159 23.3879 32.8378 21.5874 34.2986 19.9698C34.4662 19.7842 34.7834 19.7465 35.007 19.8858C35.2305 20.025 35.2758 20.2884 35.1082 20.474C33.7167 22.0148 32.6463 23.7341 31.8973 25.6317C31.1453 27.5369 30.7173 29.6197 30.6134 31.8801Z" fill="#E31E24" stroke="#FF0000" stroke-width="0.288" stroke-miterlimit="22.9256"/>
<path d="M88.3341 31.7627C88.3593 31.9938 88.1541 32.1982 87.8758 32.2191C87.5974 32.24 87.3513 32.0696 87.3261 31.8385C87.055 29.3837 86.5482 27.2209 85.8057 25.3501C85.0703 23.497 84.1061 21.9385 82.9132 20.6746C82.7411 20.4917 82.7802 20.2276 83.0005 20.0847C83.2207 19.9419 83.5388 19.9743 83.7108 20.1572C84.9797 21.5016 85.9995 23.1447 86.7701 25.0865C87.5337 27.0106 88.055 29.236 88.3341 31.7627Z" fill="#E31E24" stroke="#FF0000" stroke-width="0.288" stroke-miterlimit="22.9256"/>
<path d="M68.3758 21.4452C68.1649 21.3643 68.042 21.1702 68.0931 20.9738C68.4518 19.6186 69.1302 18.3361 70.1284 17.1264C71.1178 15.9273 72.4224 14.8003 74.0421 13.7455C74.0635 13.7316 74.0859 13.7194 74.109 13.7087C76.858 12.3238 79.0069 11.0732 80.5554 9.95742C82.0344 8.89171 82.944 7.96686 83.2843 7.18282C83.4078 6.46635 83.2542 5.88565 82.8236 5.44076C82.3629 4.96493 81.5778 4.61609 80.4685 4.39436C80.1967 4.3407 80.0288 4.11421 80.0934 3.88853C80.1581 3.66285 80.4308 3.52342 80.7026 3.57711C82.0391 3.84424 83.0094 4.28975 83.6133 4.91354C84.2374 5.55825 84.4607 6.36667 84.283 7.33853C84.2786 7.36626 84.2709 7.39402 84.2595 7.42145C83.8729 8.35359 82.8591 9.41092 81.2181 10.5934C79.6337 11.7352 77.4426 13.011 74.6452 14.4209C73.1203 15.4163 71.8938 16.4763 70.9658 17.6009C70.0807 18.6736 69.4681 19.8056 69.1279 20.997C70.175 20.409 71.2498 19.9543 72.3522 19.633C73.7518 19.2251 75.1938 19.0333 76.678 19.0574C78.184 19.0006 79.3741 18.8034 80.2484 18.4656C81.0386 18.1603 81.5584 17.7392 81.8079 17.2022C81.9223 16.6971 81.8102 16.2326 81.4717 15.8088C81.0982 15.3412 80.4529 14.91 79.5358 14.5154C79.2871 14.4089 79.1893 14.1551 79.3176 13.9486C79.4458 13.742 79.7514 13.6609 80.0002 13.7673C81.0743 14.2296 81.8466 14.7552 82.317 15.3442C82.8164 15.9694 82.9767 16.6525 82.7978 17.3933L82.7965 17.3931C82.7916 17.4136 82.7848 17.434 82.7759 17.4543C82.4365 18.2277 81.7355 18.8197 80.673 19.2302C79.6794 19.614 78.3593 19.8367 76.7127 19.898L76.7126 19.8977C76.7021 19.8981 76.6916 19.8982 76.6809 19.898C75.3111 19.8738 73.9793 20.0501 72.6856 20.4272C71.3922 20.8041 70.1346 21.3827 68.9128 22.1629C68.9051 22.1682 68.8972 22.1734 68.889 22.1783C68.4633 22.4391 68.0408 22.8804 67.6216 23.502C67.1813 24.1549 66.7551 24.9927 66.3431 26.0152C66.2544 26.2354 65.9674 26.3542 65.7022 26.2805C65.437 26.2068 65.294 25.9685 65.3828 25.7483C65.8169 24.6708 66.2682 23.7847 66.7366 23.0901C67.2262 22.3641 67.744 21.8339 68.2898 21.4995L68.296 21.4958C68.3226 21.4788 68.3492 21.462 68.3758 21.4452Z" fill="#E31E24" stroke="#FF0000" stroke-width="0.288" stroke-miterlimit="22.9256"/>
<path d="M49.7506 20.6706C49.8394 20.8908 49.6964 21.1291 49.4311 21.2028C49.4087 21.209 49.3861 21.2139 49.3634 21.2174C50.1264 21.7514 50.7836 22.3798 51.335 23.1027C51.342 23.1119 51.3485 23.1213 51.3546 23.1308L51.3548 23.1307C51.6717 23.6272 51.9349 24.1 52.1444 24.5489C52.3557 25.0018 52.5109 25.4289 52.6099 25.8302C52.6658 26.0576 52.489 26.2797 52.215 26.3261C51.9411 26.3725 51.6737 26.2257 51.6178 25.9982C51.5303 25.6437 51.391 25.2617 51.1999 24.8521C51.0087 24.4425 50.7642 24.0037 50.4664 23.536C49.601 22.407 48.443 21.535 46.9924 20.92C45.5243 20.2976 43.7547 19.9361 41.6838 19.8352C40.5748 19.9022 39.5651 19.8333 38.6547 19.6287C37.7317 19.4213 36.9125 19.0748 36.1971 18.5894C36.1649 18.57 36.135 18.5471 36.1083 18.5208C35.2576 17.6884 34.9827 16.8645 35.2837 16.0489C35.5679 15.2789 36.3771 14.5556 37.7113 13.8793C37.9502 13.7582 38.2621 13.8209 38.4078 14.0193C38.5535 14.2177 38.478 14.4766 38.2392 14.5976C37.1235 15.1632 36.4611 15.7294 36.252 16.2961C36.0624 16.8097 36.2635 17.3612 36.8552 17.9505C37.4525 18.352 38.1396 18.6401 38.9166 18.8148C39.7249 18.9964 40.632 19.0559 41.6377 18.9931C41.6697 18.9911 41.7012 18.9917 41.7319 18.9946C43.9523 19.1018 45.8594 19.4932 47.4528 20.1687C47.9079 20.3617 48.3373 20.5776 48.741 20.8165C48.0364 19.1046 47.107 17.657 45.9526 16.4741C44.7796 15.272 43.3713 14.3405 41.7277 13.6795C41.7032 13.6697 41.6801 13.6584 41.6584 13.6459C39.101 12.3322 37.1695 11.1334 35.8641 10.0494C34.4862 8.90519 33.7748 7.85974 33.7301 6.91312C33.6876 6.04039 33.9553 5.31978 34.5334 4.7514C35.0973 4.19686 35.9452 3.80544 37.0772 3.57717C37.3489 3.52256 37.6226 3.66126 37.6883 3.88694C37.754 4.11262 37.587 4.33984 37.3152 4.39441C36.3994 4.57912 35.73 4.87939 35.3072 5.29512C34.8986 5.697 34.7102 6.22536 34.742 6.88016C34.7763 7.60498 35.3897 8.4626 36.5824 9.45297C37.8391 10.4965 39.7075 11.6553 42.1872 12.9292C43.958 13.6442 45.4751 14.649 46.7383 15.9435C47.9976 17.2339 49.0017 18.8096 49.7506 20.6706Z" fill="#E31E24" stroke="#FF0000" stroke-width="0.288" stroke-miterlimit="22.9256"/>
<path d="M46.3647 12.389C46.1104 12.4855 45.8101 12.3925 45.694 12.1814C45.5778 11.9703 45.6897 11.7209 45.944 11.6245C50.2181 9.99278 54.5147 9.18237 58.8336 9.19335C63.1533 9.20432 67.4879 10.0363 71.8374 11.6892C72.0917 11.7857 72.2036 12.035 72.0874 12.2461C71.9713 12.4572 71.671 12.5502 71.4168 12.4537C67.1993 10.851 63.0048 10.0442 58.8336 10.0337C54.6618 10.0231 50.5054 10.8082 46.3647 12.389Z" fill="#E31E24" stroke="#FF0000" stroke-width="0.288" stroke-miterlimit="22.9256"/>
<path d="M51.5362 18.0934C51.4891 17.8641 51.6748 17.6465 51.9509 17.6073C52.2271 17.5682 52.4892 17.7224 52.5363 17.9517C52.7562 19.0159 53.0344 19.8453 53.3709 20.4397C53.6708 20.9696 54.0029 21.2951 54.367 21.4161L54.3756 21.4191C54.7206 21.5273 55.1838 21.5672 55.7651 21.5388C56.3864 21.5084 57.1284 21.3996 57.9911 21.2124C58.3156 21.1117 58.6511 21.0613 58.9975 21.0613C59.3336 21.0613 59.6819 21.1103 60.0425 21.2083L60.0429 21.2072C60.5945 21.3388 61.1283 21.4407 61.6444 21.513C62.1654 21.5859 62.6689 21.63 63.1546 21.6452L63.1567 21.6453C63.6185 21.6571 64.0377 21.4052 64.4142 20.8898C64.8619 20.2769 65.2308 19.3277 65.521 18.0421C65.5725 17.8137 65.8372 17.6632 66.1123 17.706C66.3873 17.7488 66.5685 17.9686 66.517 18.197C66.2049 19.5798 65.7923 20.6225 65.2793 21.3248C64.6987 22.1197 63.983 22.5066 63.1322 22.4858C63.1278 22.4857 63.1234 22.4857 63.1189 22.4856C62.5814 22.4687 62.0343 22.4213 61.4777 22.3434C60.9161 22.2647 60.3452 22.1562 59.7651 22.0179L59.7656 22.0165C59.7588 22.0149 59.752 22.0132 59.7452 22.0113C59.4887 21.9404 59.2394 21.9049 58.9975 21.9049C58.7669 21.9049 58.545 21.9388 58.3318 22.0064L58.3316 22.0059C58.315 22.0111 58.2978 22.0157 58.2803 22.0196C57.3387 22.2253 56.5202 22.3451 55.8247 22.3791C55.0995 22.4145 54.4962 22.3564 54.0149 22.2048C54.0065 22.2024 53.9982 22.1999 53.99 22.1971C53.3802 21.9943 52.8683 21.5272 52.4542 20.7956C52.0767 20.1287 51.7707 19.2279 51.5362 18.0934Z" fill="#E31E24" stroke="#FF0000" stroke-width="0.288" stroke-miterlimit="22.9256"/>
<path d="M40.2786 25.0171C40.3805 25.2337 40.2517 25.4779 39.9909 25.5625C39.73 25.6471 39.436 25.5402 39.3341 25.3236C39.0403 24.6996 38.9244 24.1753 38.9864 23.7507C39.0602 23.2455 39.3613 22.8819 39.8898 22.6601C39.9145 22.6497 39.9398 22.6412 39.9654 22.6345L39.9652 22.6337C40.6394 22.4569 41.506 22.5975 42.5651 23.0555C43.5251 23.4708 44.6804 24.1603 46.0307 25.124L51.4053 28.455L51.4079 28.4567C52.3378 28.9823 53.1165 29.2406 53.744 29.2315C54.283 29.2236 54.7285 28.9952 55.0802 28.5461C55.1564 28.3352 55.194 28.1489 55.1932 27.9871C55.1922 27.7995 55.1365 27.6479 55.0259 27.5323C54.9061 27.407 54.714 27.3092 54.4497 27.2391C54.12 27.1516 53.6927 27.1088 53.1679 27.1106C52.8885 27.1115 52.661 26.9242 52.6599 26.6922C52.6589 26.4601 52.8845 26.2712 53.1639 26.2703C53.7944 26.268 54.3248 26.324 54.7553 26.4383C55.2192 26.5614 55.574 26.7515 55.8196 27.0084C56.0746 27.275 56.2032 27.6001 56.2052 27.9838C56.2065 28.2387 56.15 28.5188 56.0357 28.8241C56.0234 28.8677 56.0025 28.9104 55.9724 28.9505C55.4225 29.6845 54.6849 30.0583 53.7599 30.0718C53.7101 30.0725 53.6599 30.0721 53.6092 30.0706C53.6271 30.1998 53.5726 30.3341 53.4483 30.4286C51.881 31.6175 50.4715 32.1062 49.2196 31.8945C47.9592 31.6815 46.9308 30.7768 46.1342 29.1806C46.0268 28.9659 46.1494 28.7195 46.408 28.6303C46.6666 28.5412 46.9633 28.643 47.0707 28.8577C47.7304 30.1795 48.5142 30.9172 49.422 31.0707C50.3044 31.2199 51.371 30.8351 52.6215 29.9167C52.071 29.7683 51.4766 29.5138 50.8383 29.1531C50.8246 29.1462 50.8112 29.1387 50.798 29.1305L45.423 25.7992L45.4237 25.7985C45.4141 25.7925 45.4046 25.7861 45.3953 25.7794C44.0992 24.8527 42.9997 24.1941 42.0968 23.8036C41.3102 23.4634 40.7137 23.3385 40.3074 23.4289C40.1269 23.5164 40.0225 23.6567 39.9944 23.8496C39.9525 24.1365 40.0472 24.5257 40.2786 25.0171Z" fill="#E31E24" stroke="#FF0000" stroke-width="0.288" stroke-miterlimit="22.9256"/>
<path d="M78.6046 25.3236C78.5026 25.5402 78.2086 25.6471 77.9477 25.5625C77.687 25.4779 77.5581 25.2337 77.66 25.0171C77.8914 24.5257 77.9861 24.1365 77.9442 23.8496C77.9161 23.6567 77.8117 23.5164 77.6312 23.4289C77.2249 23.3385 76.6284 23.4634 75.8419 23.8036C74.9389 24.1941 73.8394 24.8527 72.5433 25.7794C72.5341 25.7861 72.5246 25.7925 72.5149 25.7985L72.5156 25.7992L67.1406 29.1305C67.1275 29.1387 67.114 29.1462 67.1003 29.1531C66.5317 29.4744 65.998 29.7115 65.499 29.8643C66.1705 30.3653 66.7949 30.7151 67.3719 30.9137C67.8911 31.0924 68.3653 31.1429 68.7945 31.0653C69.2225 30.9879 69.6224 30.7801 69.9942 30.4422C70.4037 30.07 70.7791 29.5418 71.1206 28.8577C71.228 28.643 71.5247 28.5412 71.7833 28.6303C72.0419 28.7195 72.1645 28.9659 72.0571 29.1806C71.6726 29.9511 71.2337 30.5606 70.7403 31.009C70.2212 31.4808 69.644 31.7742 69.0087 31.8891C68.3747 32.0038 67.6994 31.9379 66.983 31.6914C66.2811 31.4499 65.5344 31.0289 64.743 30.4286C64.6134 30.33 64.5597 30.1882 64.5848 30.054C64.4462 30.0678 64.3108 30.0737 64.1787 30.0718C63.2537 30.0583 62.5161 29.6845 61.9662 28.9505C61.9361 28.9104 61.9152 28.8677 61.9029 28.8241C61.7886 28.5188 61.7321 28.2387 61.7334 27.9838C61.7354 27.6001 61.864 27.275 62.119 27.0084C62.3647 26.7514 62.7195 26.5614 63.1833 26.4383C63.6138 26.324 64.1442 26.268 64.7747 26.2703C65.0541 26.2712 65.2798 26.4601 65.2787 26.6922C65.2776 26.9242 65.0501 27.1115 64.7707 27.1106C64.2459 27.1088 63.8186 27.1516 63.4889 27.2391C63.2246 27.3092 63.0325 27.407 62.9127 27.5323C62.8022 27.6479 62.7464 27.7995 62.7454 27.9871C62.7446 28.1489 62.7822 28.3352 62.8584 28.5461C63.2101 28.9952 63.6556 29.2236 64.1946 29.2315C64.8221 29.2406 65.6008 28.9823 66.5307 28.4567L66.5334 28.455L71.908 25.124C73.2582 24.1603 74.4135 23.4708 75.3736 23.0555C76.4326 22.5975 77.2993 22.4569 77.9734 22.6337L77.9732 22.6345C77.9988 22.6412 78.0241 22.6497 78.0489 22.6601C78.5773 22.8819 78.8785 23.2455 78.9522 23.7507C79.0142 24.1753 78.8983 24.6996 78.6046 25.3236Z" fill="#E31E24" stroke="#FF0000" stroke-width="0.288" stroke-miterlimit="22.9256"/>
<path d="M58.8118 27.402C58.8118 27.1691 59.0392 26.9802 59.3197 26.9802C59.6003 26.9802 59.8277 27.1691 59.8277 27.402V30.0865C59.8277 30.3194 59.6003 30.5083 59.3197 30.5083C59.0392 30.5083 58.8118 30.3194 58.8118 30.0865V27.402Z" fill="#E31E24" stroke="#FF0000" stroke-width="0.288" stroke-miterlimit="22.9256"/>
<path d="M55.6071 34.3938C55.3452 34.4766 55.052 34.3675 54.9523 34.15C54.8526 33.9325 54.984 33.6891 55.2459 33.6063C56.5029 33.2088 57.7442 33.0086 58.9698 33.0058C60.1963 33.0029 61.3988 33.1988 62.5772 33.5934C62.8369 33.6798 62.9631 33.9248 62.859 34.1404C62.7549 34.3561 62.4599 34.4608 62.2002 34.3744C61.1409 34.0196 60.064 33.8436 58.9698 33.8461C57.8748 33.8486 56.7538 34.0312 55.6071 34.3938Z" fill="#E31E24" stroke="#FF0000" stroke-width="0.288" stroke-miterlimit="22.9256"/>
<path d="M55.6714 36.9648C55.4095 37.0476 55.1164 36.9384 55.0166 36.721C54.9169 36.5035 55.0484 36.26 55.3103 36.1772C56.5672 35.7798 57.8086 35.5796 59.0342 35.5768C60.2607 35.5739 61.4631 35.7698 62.6416 36.1644C62.9013 36.2508 63.0274 36.4957 62.9233 36.7114C62.8192 36.927 62.5243 37.0318 62.2646 36.9453C61.2052 36.5906 60.1283 36.4145 59.0342 36.4171C57.9391 36.4196 56.8181 36.6022 55.6714 36.9648Z" fill="#E31E24" stroke="#FF0000" stroke-width="0.288" stroke-miterlimit="22.9256"/>
<path d="M55.6424 40.1181C55.3804 40.2009 55.0873 40.0917 54.9876 39.8743C54.8878 39.6568 55.0193 39.4133 55.2812 39.3305C56.5382 38.933 57.7795 38.7329 59.0051 38.73C60.2316 38.7272 61.4341 38.9231 62.6125 39.3177C62.8722 39.4041 62.9983 39.649 62.8943 39.8647C62.7902 40.0803 62.4952 40.1851 62.2355 40.0987C61.1761 39.7439 60.0993 39.5678 59.0051 39.5704C57.91 39.5729 56.7891 39.7555 55.6424 40.1181Z" fill="#E31E24" stroke="#FF0000" stroke-width="0.288" stroke-miterlimit="22.9256"/>
<path d="M46.3096 33.8461C46.0301 33.8543 45.7956 33.6728 45.7857 33.4407C45.7759 33.2087 45.9944 33.014 46.2739 33.0058C46.5097 32.9985 46.7398 32.9976 46.964 33.0029C48.6263 33.0427 49.9011 33.4323 50.7883 34.1716C51.6735 34.9093 52.1473 35.9753 52.2095 37.3696C52.2181 37.5607 52.2188 37.7594 52.2117 37.9655C52.204 38.1975 51.9712 38.3804 51.6918 38.3741C51.4124 38.3677 51.192 38.1744 51.1997 37.9424C51.2061 37.7561 51.2055 37.575 51.1976 37.3993C51.1452 36.2257 50.7693 35.3475 50.07 34.7648C49.3728 34.1837 48.3282 33.8765 46.9363 33.8432C46.7358 33.8384 46.5269 33.8394 46.3096 33.8461Z" fill="#E31E24" stroke="#FF0000" stroke-width="0.288" stroke-miterlimit="22.9256"/>
<path d="M71.7446 33.0057C72.0241 33.0139 72.2426 33.2087 72.2328 33.4407C72.2229 33.6728 71.9883 33.8542 71.7089 33.8461C69.9973 33.7933 68.7423 34.1008 67.9439 34.7686C67.1436 35.4379 66.7686 36.4958 66.8188 37.9424C66.8264 38.1744 66.6061 38.3677 66.3267 38.3741C66.0473 38.3804 65.8145 38.1975 65.8068 37.9654C65.7483 36.2788 66.2212 35.0154 67.2256 34.1754C68.2318 33.3338 69.7382 32.9439 71.7446 33.0057Z" fill="#E31E24" stroke="#FF0000" stroke-width="0.288" stroke-miterlimit="22.9256"/>
<path d="M53.6926 32.1985C53.6915 31.9665 53.9172 31.7776 54.1967 31.7767C54.4761 31.7758 54.7035 31.9632 54.7046 32.1952L54.7436 37.5965C54.7437 37.6269 54.7399 37.6566 54.7326 37.6853L54.7336 37.6855C54.5867 38.2517 54.3378 38.7912 53.9872 39.3037C53.6406 39.8101 53.1953 40.2887 52.6513 40.7392C52.3771 40.9703 52.2597 41.2215 52.2988 41.4927C52.3449 41.8117 52.5859 42.1786 53.0217 42.5932C53.0631 42.6325 53.0941 42.6765 53.1149 42.7227C53.1816 42.857 53.2304 42.9866 53.2611 43.1117C53.3575 43.5049 53.2857 43.8544 53.0456 44.16C52.8241 44.4419 52.4664 44.669 51.9726 44.8415C51.6812 44.9432 51.3404 45.0271 50.9502 45.0931C50.6762 45.1395 50.4089 44.9927 50.353 44.7652C50.2971 44.5378 50.4738 44.3157 50.7478 44.2693C51.0748 44.214 51.3521 44.1466 51.5797 44.0671C51.8826 43.9613 52.0882 43.8396 52.1964 43.7019C52.2858 43.588 52.3101 43.4473 52.269 43.2798C52.2542 43.2199 52.232 43.1572 52.2024 43.0916C51.6631 42.5646 51.3592 42.0646 51.2909 41.5916C51.2132 41.0542 51.4259 40.5735 51.929 40.1493L51.929 40.1494L51.933 40.146C52.4133 39.7487 52.8044 39.3295 53.1061 38.8885C53.3966 38.464 53.6049 38.0177 53.7313 37.5496L53.6926 32.1985Z" fill="#E31E24" stroke="#FF0000" stroke-width="0.288" stroke-miterlimit="22.9256"/>
<path d="M63.106 32.1952C63.1071 31.9632 63.3345 31.7758 63.6139 31.7767C63.8934 31.7776 64.119 31.9665 64.1179 32.1985L64.0793 37.5496C64.2056 38.0177 64.414 38.464 64.7044 38.8885C65.0062 39.3295 65.3973 39.7487 65.8776 40.146L65.8815 40.1494V40.1493C66.3846 40.5734 66.5974 41.0542 66.5197 41.5916C66.4514 42.0646 66.1475 42.5646 65.6082 43.0916C65.5785 43.1572 65.5563 43.2199 65.5416 43.2798C65.5005 43.4473 65.5248 43.5881 65.6142 43.7019C65.7224 43.8396 65.9279 43.9613 66.2309 44.0671C66.4585 44.1466 66.7358 44.214 67.0628 44.2693C67.3367 44.3157 67.5135 44.5378 67.4576 44.7652C67.4017 44.9927 67.1343 45.1395 66.8604 45.0931C66.4701 45.0271 66.1293 44.9432 65.8379 44.8415C65.3441 44.669 64.9864 44.4419 64.765 44.16C64.5249 43.8544 64.4531 43.5049 64.5495 43.1118C64.5802 42.9867 64.6289 42.857 64.6957 42.7227C64.7165 42.6765 64.7475 42.6325 64.7889 42.5932C65.2247 42.1786 65.4656 41.8117 65.5118 41.4927C65.5509 41.2215 65.4334 40.9703 65.1593 40.7392C64.6153 40.2887 64.17 39.8101 63.8234 39.3037C63.4728 38.7912 63.2239 38.2517 63.0769 37.6855L63.0779 37.6853C63.0707 37.6566 63.0669 37.6269 63.067 37.5965L63.106 32.1952Z" fill="#E31E24" stroke="#FF0000" stroke-width="0.288" stroke-miterlimit="22.9256"/>
<path d="M30.9099 36.3655C30.8047 36.5811 30.5089 36.6852 30.2491 36.5978C29.9894 36.5104 29.8642 36.2648 29.9694 36.0491C30.5304 34.8988 31.2524 34.0546 32.1354 33.5165C33.0457 32.9618 34.1083 32.7381 35.3229 32.8456C35.3316 32.8464 35.3403 32.8473 35.3489 32.8485C36.6919 33.0048 37.7389 33.3738 38.4899 33.9554C39.2582 34.5504 39.7029 35.352 39.8241 36.3602C39.8265 36.3802 39.8271 36.4 39.8261 36.4196L39.8261 41.4307L39.8261 43.7108C39.8261 43.7147 39.826 43.7185 39.8258 43.7223H39.8261C39.8016 44.4383 39.9431 44.9947 40.2507 45.3915C40.5268 45.7477 40.955 45.9836 41.5351 46.0993C42.1466 46.0488 42.6018 45.8594 42.9006 45.5313C43.2359 45.1631 43.4057 44.6102 43.4101 43.8726H43.4081V41.5115C43.4081 41.4808 43.4121 41.4509 43.4196 41.4221C43.5908 40.446 43.9335 39.6861 44.4479 39.1425C45.0002 38.5587 45.7341 38.2278 46.6494 38.1498C46.6799 38.1472 46.71 38.1469 46.7396 38.1488C47.8609 38.1945 48.7753 38.3598 49.4827 38.6447C50.2475 38.9527 50.7747 39.3969 51.0642 39.9771L51.0681 39.9854L51.0682 39.9853C51.3323 40.5546 51.3462 41.0552 51.1098 41.4871C50.8813 41.9044 50.4325 42.2307 49.7635 42.4659C49.0653 42.7989 48.619 43.1529 48.4249 43.5277C48.2507 43.8639 48.2819 44.2398 48.5186 44.6554C49.2609 45.4941 50.0378 45.9191 50.8493 45.9301C51.6941 45.9416 52.6305 45.5197 53.6584 44.6645C54.5624 43.7767 55.4311 43.1223 56.2644 42.7015C57.1491 42.2547 58.0026 42.0631 58.8247 42.1265C60.1225 42.1318 61.2234 42.3366 62.1272 42.7409C63.0371 43.148 63.7408 43.7517 64.2383 44.5519C65.124 45.3358 65.9555 45.7956 66.7328 45.9312C67.4619 46.0584 68.1672 45.8896 68.8486 45.4248C69.3639 44.998 69.6217 44.572 69.6217 44.1468C69.6217 43.7289 69.3768 43.2843 68.8871 42.8131C68.0125 42.485 67.3876 42.1333 67.0127 41.7581C66.7819 41.5273 66.6404 41.2864 66.5883 41.0353C66.534 40.7742 66.5763 40.5125 66.715 40.2504C66.8787 39.9413 67.1819 39.6341 67.6247 39.3289C67.6294 39.3256 67.6341 39.3225 67.6389 39.3194L67.6386 39.319C70.0114 37.7977 72.0826 37.8352 73.852 39.4315C73.8927 39.4682 73.924 39.5093 73.9461 39.5527C74.181 39.9426 74.3566 40.4439 74.4727 41.0565C74.5865 41.6565 74.6446 42.3704 74.6472 43.198H74.6472C74.6875 44.2939 74.8832 45.0833 75.2343 45.566C75.516 45.9534 75.9218 46.1178 76.4516 46.0593C76.4785 46.0564 76.5052 46.0553 76.5315 46.0559C77.0833 46.0522 77.507 45.8431 77.8025 45.4287C78.1536 44.9365 78.3483 44.175 78.3866 43.1444L78.1925 37.6905C78.1921 37.6803 78.1922 37.6701 78.1928 37.6601C78.2264 36.2723 78.5535 35.1773 79.174 34.3752C79.8254 33.5331 80.7803 33.019 82.0386 32.8328C82.0692 32.8284 82.0996 32.8263 82.1295 32.8265C83.5786 32.7624 84.789 32.9718 85.7606 33.4547C86.7533 33.9481 87.4792 34.7149 87.9382 35.7551C88.0346 35.9735 87.8996 36.2154 87.6366 36.2955C87.3736 36.3756 87.0822 36.2635 86.9858 36.0451C86.6084 35.1899 86.0267 34.567 85.2407 34.1764C84.4487 33.7827 83.4323 33.6128 82.1917 33.6665C81.2362 33.812 80.5146 34.1998 80.0272 34.83C79.5084 35.5005 79.2342 36.449 79.2046 37.6751L79.399 43.1333C79.3992 43.1409 79.3993 43.1486 79.399 43.1564C79.3563 44.3405 79.1152 45.2407 78.6756 45.8571C78.188 46.5408 77.4804 46.8871 76.5529 46.8961C75.5995 46.9937 74.8702 46.6954 74.3652 46.0011C73.9244 45.395 73.681 44.4683 73.6352 43.2211H73.6354C73.6353 43.2172 73.6352 43.2134 73.6352 43.2096C73.6333 42.4214 73.5791 41.7465 73.4727 41.185C73.3765 40.6778 73.2392 40.27 73.0608 39.9616C71.7198 38.7838 70.1188 38.7914 68.2576 39.9847L68.2575 39.9845C67.948 40.1995 67.7434 40.4014 67.6437 40.5898C67.587 40.6969 67.5685 40.7982 67.5883 40.8936C67.6102 40.9989 67.6776 41.1081 67.7905 41.221C68.0756 41.5063 68.611 41.7924 69.3965 42.0792C69.4613 42.1025 69.5212 42.1375 69.5715 42.1839C70.2822 42.841 70.6376 43.4953 70.6376 44.1468C70.6376 44.8075 70.2756 45.4354 69.5517 46.0305L69.5512 46.0301C69.5406 46.0388 69.5296 46.0472 69.5179 46.0552C68.5782 46.7058 67.581 46.939 66.5265 46.755C65.5311 46.5814 64.5103 46.0274 63.4642 45.0935C63.4256 45.0619 63.3925 45.0246 63.367 44.9822C62.9646 44.3153 62.3913 43.8153 61.647 43.4824C60.8874 43.1425 59.9432 42.9707 58.8146 42.9668C58.7917 42.9675 58.7686 42.9669 58.7453 42.965C58.1419 42.9155 57.4908 43.0671 56.7922 43.4199C56.0475 43.796 55.26 44.3918 54.4297 45.2073C54.4155 45.2231 54.3999 45.2383 54.3827 45.2526C53.15 46.2799 51.9669 46.7859 50.8334 46.7704C49.6739 46.7546 48.6204 46.2053 47.673 45.1223L47.6734 45.1221C47.6569 45.1032 47.6421 45.0829 47.6293 45.0613C47.2365 44.3989 47.1908 43.7768 47.4923 43.1949C47.7772 42.645 48.3707 42.1559 49.2728 41.7279L49.2738 41.7293C49.2931 41.7202 49.3132 41.712 49.3343 41.7048C49.7783 41.554 50.062 41.3661 50.1851 41.1411C50.3052 40.9217 50.2854 40.6388 50.1256 40.2927C49.9349 39.9134 49.5737 39.6167 49.0422 39.4026C48.4622 39.169 47.687 39.0315 46.7168 38.9901C46.1047 39.0491 45.6143 39.2734 45.2455 39.6631C44.8427 40.0888 44.5689 40.7128 44.4241 41.5349V43.8726H44.4221V43.8742C44.4169 44.8017 44.1796 45.5233 43.7102 46.0388C43.2155 46.582 42.4918 46.8841 41.539 46.9448L41.539 46.9447C41.4923 46.9475 41.4443 46.9451 41.3961 46.9366C40.5035 46.777 39.8373 46.4136 39.3975 45.8463C38.9781 45.3052 38.7836 44.5895 38.8141 43.6993L38.8142 41.4307L38.8141 36.4268C38.7158 35.6379 38.3776 35.0194 37.7994 34.5716C37.2038 34.1103 36.3404 33.8137 35.2093 33.6821C34.2575 33.599 33.4326 33.77 32.7346 34.1954C32.0077 34.6383 31.3994 35.3618 30.9099 36.3655Z" fill="#E31E24" stroke="#FF0000" stroke-width="0.288" stroke-miterlimit="22.9256"/>
<path d="M53.1568 49.3676C53.2127 49.5951 53.0359 49.8172 52.762 49.8636C52.488 49.91 52.2206 49.7632 52.1647 49.5357C52.0186 48.9469 52.0906 48.4483 52.3805 48.0401C52.6672 47.6364 53.1509 47.3442 53.8313 47.1635L54.5784 46.8933C54.5999 46.8839 54.6219 46.876 54.6442 46.8694L56.9765 46.0259C57.0093 46.014 57.0427 46.0053 57.0763 45.9995C57.8619 45.8412 58.5949 45.762 59.2753 45.762C59.9745 45.762 60.627 45.8456 61.2325 46.0127C61.2494 46.0173 61.2658 46.0226 61.2816 46.0285L61.2821 46.0275L65.1576 47.4829C65.1913 47.4955 65.2225 47.5108 65.251 47.5283C65.6823 47.7764 65.9394 48.0881 66.0224 48.4632C66.1011 48.8191 66.0111 49.2112 65.7522 49.6395C65.6273 49.847 65.3235 49.9311 65.0736 49.8273C64.8238 49.7236 64.7225 49.4713 64.8474 49.2638C65.0048 49.0035 65.0644 48.7871 65.0263 48.6148C64.9953 48.4746 64.8858 48.3479 64.698 48.2346L63.5829 47.8159C63.5043 47.9607 63.4205 48.1119 63.3321 48.2571C62.8196 49.0987 62.104 49.8701 60.9379 49.4123C59.7757 49.1595 58.4319 49.1624 56.9068 49.4209C56.5886 49.5108 56.2954 49.5103 56.0272 49.4194C55.7638 49.3301 55.5497 49.1619 55.385 48.9149C55.3823 48.9113 55.3797 48.9078 55.3772 48.9042L54.6018 47.8023L54.23 47.9368C54.2063 47.9465 54.1814 47.9549 54.1553 47.9616C53.7122 48.077 53.4116 48.246 53.2535 48.4685C53.0955 48.691 53.0633 48.9907 53.1568 49.3676ZM62.6603 47.4694L60.8784 46.8002C60.394 46.6705 59.8596 46.6056 59.2753 46.6056C58.675 46.6056 58.0304 46.6742 57.3419 46.8113L55.5393 47.4632L56.2542 48.4791C56.2622 48.4904 56.2694 48.5019 56.2759 48.5136C56.3225 48.5827 56.3666 48.6243 56.4082 48.6384C56.448 48.6519 56.5111 48.6456 56.5973 48.6196C56.6267 48.6107 56.6565 48.6043 56.6863 48.6001C58.3968 48.3081 59.916 48.3107 61.2437 48.608C61.284 48.617 61.3217 48.6297 61.3567 48.6456C61.7745 48.8061 62.1379 48.3534 62.4273 47.8781C62.5123 47.7384 62.5891 47.6004 62.6603 47.4694Z" fill="#E31E24" stroke="#FF0000" stroke-width="0.288" stroke-miterlimit="22.9256"/>
<path d="M31.0297 41.7313C30.9157 41.5193 31.0303 41.2707 31.2857 41.176C31.541 41.0814 31.8404 41.1766 31.9543 41.3886C33.7987 44.8201 36.0119 47.6557 38.5938 49.8951C41.1636 52.1241 44.1017 53.7641 47.4081 54.8148C47.67 54.8976 47.8015 55.1411 47.7017 55.3586C47.602 55.5761 47.3088 55.6852 47.047 55.6024C43.6001 54.507 40.5389 52.799 37.8636 50.4784C35.2003 48.1683 32.9223 45.2526 31.0297 41.7313Z" fill="#E31E24" stroke="#FF0000" stroke-width="0.288" stroke-miterlimit="22.9256"/>
<path d="M85.9082 41.3886C86.0221 41.1766 86.3215 41.0814 86.5769 41.176C86.8322 41.2707 86.9468 41.5193 86.8329 41.7313C84.9402 45.2526 82.6622 48.1684 79.999 50.4784C77.3236 52.799 74.2625 54.507 70.8156 55.6024C70.5537 55.6852 70.2605 55.5761 70.1608 55.3586C70.0611 55.1411 70.1925 54.8976 70.4544 54.8148C73.7609 53.7641 76.6989 52.1241 79.2687 49.8952C81.8506 47.6557 84.0638 44.8201 85.9082 41.3886Z" fill="#E31E24" stroke="#FF0000" stroke-width="0.288" stroke-miterlimit="22.9256"/>
<path d="M50.7746 56.3318C50.5116 56.2526 50.3757 56.0114 50.471 55.793C50.5663 55.5746 50.8569 55.4618 51.1198 55.5409C51.7985 55.7463 52.4288 55.9036 53.0106 56.0126C53.5842 56.1203 54.1099 56.1812 54.5874 56.1954C54.8668 56.2036 55.0854 56.3984 55.0755 56.6304C55.0656 56.8624 54.8311 57.0439 54.5516 57.0357C54.0099 57.0196 53.422 56.9521 52.7883 56.8332C52.1627 56.7159 51.4915 56.5488 50.7746 56.3318Z" fill="#E31E24" stroke="#FF0000" stroke-width="0.288" stroke-miterlimit="22.9256"/>
<path d="M56.6406 57.1311C56.3623 57.1074 56.1598 56.9009 56.1882 56.6697C56.2167 56.4386 56.4655 56.2704 56.7438 56.2941C57.595 56.3675 58.4106 56.4043 59.1903 56.4043C59.9659 56.4043 60.6889 56.3681 61.3591 56.2957C61.6364 56.2657 61.8904 56.428 61.9266 56.6582C61.9627 56.8884 61.7673 57.0994 61.4901 57.1294C60.7587 57.2084 59.9921 57.2479 59.1903 57.2479C58.3926 57.2479 57.5427 57.209 56.6406 57.1311Z" fill="#E31E24" stroke="#FF0000" stroke-width="0.288" stroke-miterlimit="22.9256"/>
<path d="M63.6709 56.9694C63.3925 56.9903 63.1464 56.8199 63.1212 56.5887C63.096 56.3576 63.3013 56.1532 63.5796 56.1323C64.2365 56.0822 64.85 56.0003 65.42 55.8865C65.9785 55.775 66.5001 55.6307 66.9847 55.4538C67.2411 55.36 67.5405 55.4567 67.6534 55.6696C67.7663 55.8825 67.6499 56.1312 67.3935 56.2249C66.8634 56.4185 66.2836 56.5781 65.6541 56.7037C65.0362 56.8271 64.3751 56.9157 63.6709 56.9694Z" fill="#E31E24" stroke="#FF0000" stroke-width="0.288" stroke-miterlimit="22.9256"/>
</svg>
